<?xml version="1.0" encoding="UTF-8" standalone="no"?>
<!-- Created with Inkscape (http://www.inkscape.org/) -->

<svg
   width="512"
   height="512"
   viewBox="0 0 135.46666 135.46667"
   version="1.1"
   id="svg5"
   xml:space="preserve"
   inkscape:version="1.2.2 (b0a8486541, 2022-12-01)"
   sodipodi:docname="anadolu-logo.svg"
   xmlns:inkscape="http://www.inkscape.org/namespaces/inkscape"
   xmlns:sodipodi="http://sodipodi.sourceforge.net/DTD/sodipodi-0.dtd"
   xmlns:xlink="http://www.w3.org/1999/xlink"
   xmlns="http://www.w3.org/2000/svg"
   xmlns:svg="http://www.w3.org/2000/svg"><sodipodi:namedview
     id="namedview7"
     pagecolor="#ffffff"
     bordercolor="#000000"
     borderopacity="0.25"
     inkscape:showpageshadow="2"
     inkscape:pageopacity="0.0"
     inkscape:pagecheckerboard="0"
     inkscape:deskcolor="#d1d1d1"
     inkscape:document-units="mm"
     showgrid="false"
     inkscape:zoom="1"
     inkscape:cx="385.5"
     inkscape:cy="193"
     inkscape:window-width="1920"
     inkscape:window-height="1011"
     inkscape:window-x="0"
     inkscape:window-y="32"
     inkscape:window-maximized="1"
     inkscape:current-layer="layer1" /><defs
     id="defs2"><linearGradient
       inkscape:collect="always"
       id="linearGradient53056"><stop
         style="stop-color:#1c0045;stop-opacity:1;"
         offset="0"
         id="stop53052" /><stop
         style="stop-color:#330e49;stop-opacity:1;"
         offset="1"
         id="stop53054" /></linearGradient><linearGradient
       inkscape:collect="always"
       id="linearGradient49598"><stop
         style="stop-color:#28114d;stop-opacity:1;"
         offset="0"
         id="stop49594" /><stop
         style="stop-color:#933291;stop-opacity:1;"
         offset="1"
         id="stop49596" /></linearGradient><linearGradient
       inkscape:collect="always"
       id="linearGradient42850"><stop
         style="stop-color:#934a9d;stop-opacity:1;"
         offset="0"
         id="stop42846" /><stop
         style="stop-color:#2b1551;stop-opacity:1;"
         offset="1"
         id="stop42848" /></linearGradient><linearGradient
       inkscape:collect="always"
       id="linearGradient31784"><stop
         style="stop-color:#221152;stop-opacity:1;"
         offset="0"
         id="stop31780" /><stop
         style="stop-color:#8c2a8b;stop-opacity:1;"
         offset="1"
         id="stop31782" /></linearGradient><linearGradient
       inkscape:collect="always"
       id="linearGradient31738"><stop
         style="stop-color:#32e4ff;stop-opacity:1;"
         offset="0"
         id="stop31734" /><stop
         style="stop-color:#263977;stop-opacity:1;"
         offset="1"
         id="stop31736" /></linearGradient><linearGradient
       inkscape:collect="always"
       id="linearGradient30409"><stop
         style="stop-color:#23a0b2;stop-opacity:1;"
         offset="0"
         id="stop30405" /><stop
         style="stop-color:#263977;stop-opacity:1;"
         offset="1"
         id="stop30407" /></linearGradient><linearGradient
       inkscape:collect="always"
       id="linearGradient10071"><stop
         style="stop-color:#2274a6;stop-opacity:0.82745099;"
         offset="0"
         id="stop10067" /><stop
         style="stop-color:#2d3272;stop-opacity:1;"
         offset="1"
         id="stop10069" /></linearGradient><linearGradient
       inkscape:collect="always"
       id="linearGradient3612"><stop
         style="stop-color:#76d2e1;stop-opacity:0.87058824;"
         offset="0"
         id="stop3608" /><stop
         style="stop-color:#263371;stop-opacity:1;"
         offset="1"
         id="stop3610" /></linearGradient><linearGradient
       inkscape:collect="always"
       id="linearGradient1465"><stop
         style="stop-color:#92d9e7;stop-opacity:0.94117647;"
         offset="0"
         id="stop1461" /><stop
         style="stop-color:#224888;stop-opacity:1;"
         offset="1"
         id="stop1463" /></linearGradient><linearGradient
       inkscape:collect="always"
       xlink:href="#linearGradient1465"
       id="linearGradient1467"
       x1="86.656563"
       y1="137.2942"
       x2="107.51447"
       y2="137.2942"
       gradientUnits="userSpaceOnUse" /><linearGradient
       inkscape:collect="always"
       xlink:href="#linearGradient3612"
       id="linearGradient3614"
       x1="86.471001"
       y1="128.29248"
       x2="102.01115"
       y2="143.5312"
       gradientUnits="userSpaceOnUse" /><linearGradient
       inkscape:collect="always"
       xlink:href="#linearGradient10071"
       id="linearGradient9237"
       gradientUnits="userSpaceOnUse"
       x1="92.899361"
       y1="141.01781"
       x2="106.1862"
       y2="141.8038" /><linearGradient
       inkscape:collect="always"
       xlink:href="#linearGradient1465"
       id="linearGradient11334"
       gradientUnits="userSpaceOnUse"
       x1="86.656563"
       y1="137.2942"
       x2="107.51447"
       y2="137.2942" /><linearGradient
       inkscape:collect="always"
       xlink:href="#linearGradient3612"
       id="linearGradient11336"
       gradientUnits="userSpaceOnUse"
       x1="86.471001"
       y1="128.29248"
       x2="102.01115"
       y2="143.5312" /><linearGradient
       inkscape:collect="always"
       xlink:href="#linearGradient10071"
       id="linearGradient11338"
       gradientUnits="userSpaceOnUse"
       x1="92.899361"
       y1="141.01781"
       x2="106.1862"
       y2="141.8038" /><linearGradient
       inkscape:collect="always"
       xlink:href="#linearGradient31738"
       id="linearGradient16707"
       gradientUnits="userSpaceOnUse"
       x1="107.41762"
       y1="128.93768"
       x2="107.04913"
       y2="175.47003"
       gradientTransform="matrix(0.86577779,0,0,1,12.704997,0)" /><linearGradient
       inkscape:collect="always"
       xlink:href="#linearGradient30409"
       id="linearGradient31732"
       gradientUnits="userSpaceOnUse"
       gradientTransform="matrix(0.95922534,0,0,1,4.5748756,0)"
       x1="107.41762"
       y1="128.93768"
       x2="107.04913"
       y2="175.47003" /><linearGradient
       inkscape:collect="always"
       xlink:href="#linearGradient31738"
       id="linearGradient31766"
       gradientUnits="userSpaceOnUse"
       gradientTransform="matrix(0.86577779,0,0,1,12.704997,0)"
       x1="107.41762"
       y1="128.93768"
       x2="107.04913"
       y2="175.47003" /><linearGradient
       inkscape:collect="always"
       xlink:href="#linearGradient30409"
       id="linearGradient31768"
       gradientUnits="userSpaceOnUse"
       gradientTransform="matrix(0.95922534,0,0,1,4.5748756,0)"
       x1="107.41762"
       y1="128.93768"
       x2="107.04913"
       y2="175.47003" /><linearGradient
       inkscape:collect="always"
       xlink:href="#linearGradient31784"
       id="linearGradient41799"
       gradientUnits="userSpaceOnUse"
       x1="107.26051"
       y1="170.19368"
       x2="107.14002"
       y2="162.07205"
       gradientTransform="matrix(1,0,0,0.86857322,0,21.310958)" /><linearGradient
       inkscape:collect="always"
       xlink:href="#linearGradient31784"
       id="linearGradient42442"
       gradientUnits="userSpaceOnUse"
       gradientTransform="matrix(1,0,0,0.86857322,0,21.310958)"
       x1="107.26051"
       y1="170.19368"
       x2="107.14002"
       y2="162.07205" /><linearGradient
       inkscape:collect="always"
       xlink:href="#linearGradient42850"
       id="linearGradient42852"
       x1="96.633209"
       y1="143.88873"
       x2="98.219238"
       y2="167.38634"
       gradientUnits="userSpaceOnUse"
       gradientTransform="matrix(1,0,0,0.96558049,0.01182693,5.8012634)" /><linearGradient
       inkscape:collect="always"
       xlink:href="#linearGradient42850"
       id="linearGradient46661"
       gradientUnits="userSpaceOnUse"
       gradientTransform="matrix(-1,0,0,0.96558049,214.4808,5.8012634)"
       x1="96.633209"
       y1="143.88873"
       x2="98.219238"
       y2="167.38634" /><linearGradient
       inkscape:collect="always"
       xlink:href="#linearGradient49598"
       id="linearGradient49600"
       x1="105.64542"
       y1="175.9803"
       x2="105.83378"
       y2="193.47522"
       gradientUnits="userSpaceOnUse" /><linearGradient
       inkscape:collect="always"
       xlink:href="#linearGradient53056"
       id="linearGradient53058"
       x1="105.44764"
       y1="155.27937"
       x2="105.83378"
       y2="181.92671"
       gradientUnits="userSpaceOnUse" /><linearGradient
       inkscape:collect="always"
       xlink:href="#linearGradient49598"
       id="linearGradient54106"
       gradientUnits="userSpaceOnUse"
       x1="105.64542"
       y1="175.9803"
       x2="105.83378"
       y2="193.47522" /><linearGradient
       inkscape:collect="always"
       xlink:href="#linearGradient49598"
       id="linearGradient54108"
       gradientUnits="userSpaceOnUse"
       x1="105.64542"
       y1="175.9803"
       x2="105.83378"
       y2="193.47522" /><linearGradient
       inkscape:collect="always"
       xlink:href="#linearGradient53056"
       id="linearGradient54110"
       gradientUnits="userSpaceOnUse"
       x1="105.44764"
       y1="155.27937"
       x2="105.83378"
       y2="181.92671" /><linearGradient
       inkscape:collect="always"
       xlink:href="#linearGradient53056"
       id="linearGradient54112"
       gradientUnits="userSpaceOnUse"
       x1="105.44764"
       y1="155.27937"
       x2="105.83378"
       y2="181.92671" /></defs><g
     inkscape:label="Layer 1"
     inkscape:groupmode="layer"
     id="layer1"><g
       id="g16667"
       transform="matrix(0.93749725,0,0,0.93749725,-45.608237,-66.600223)"><g
         id="g11320"><g
           id="g9220"><g
             id="g9213"><path
               style="fill:url(#linearGradient1467);fill-opacity:1;stroke-width:0.264583"
               d="m 86.656565,128.5982 c 0,0 2.890907,2.77998 7.066843,3.68617 4.462602,0.9684 7.343762,0.0341 10.587352,1.51338 1.28541,0.58622 3.20371,2.77481 3.20371,2.77481 l -3.24981,9.41049 c 0,0 -5.169128,0.29066 -9.159393,-2.83608 -7.72456,-6.05291 -8.448702,-14.54877 -8.448702,-14.54877 z"
               id="path1336"
               sodipodi:nodetypes="csaccsc" /></g><path
             style="fill:url(#linearGradient3614);fill-opacity:1;stroke-width:0.264583"
             d="m 86.656565,128.5982 c 0,0 4.27946,5.08372 8.455396,5.98991 4.462602,0.9684 5.571099,1.02073 7.859809,2.55388 1.35101,0.905 3.15957,3.7169 3.15957,3.7169 l -1.86668,5.12416 c 0,0 -5.169128,0.29066 -9.159393,-2.83608 -7.72456,-6.05291 -8.448702,-14.54877 -8.448702,-14.54877 z"
             id="path9215"
             sodipodi:nodetypes="csaccsc" /></g><path
           style="fill:url(#linearGradient9237);fill-opacity:1;stroke-width:0.264583"
           d="m 102.82422,139.93008 c 0.70748,-1.3258 -2.08565,-3.99679 -2.08565,-3.99679 0,0 1.64374,0.7011 2.32651,1.25912 1.23363,1.00822 3.06626,3.66648 3.06626,3.66648 l -1.86668,5.12416 c 0,0 -2.78799,0.13106 -5.990405,-1.02398 -2.936311,-1.05905 -5.483167,-3.92625 -5.483167,-3.92625 0,0 8.449162,1.86559 10.033132,-1.10274 z"
           id="path1436"
           sodipodi:nodetypes="acaccsca" /></g><g
         id="g11332"
         transform="matrix(-1,0,0,1,241.79607,0)"><g
           id="g11328"><g
             id="g11324"><path
               style="fill:url(#linearGradient11334);fill-opacity:1;stroke-width:0.264583"
               d="m 86.656565,128.5982 c 0,0 2.890907,2.77998 7.066843,3.68617 4.462602,0.9684 7.343762,0.0341 10.587352,1.51338 1.28541,0.58622 3.20371,2.77481 3.20371,2.77481 l -3.24981,9.41049 c 0,0 -5.169128,0.29066 -9.159393,-2.83608 -7.72456,-6.05291 -8.448702,-14.54877 -8.448702,-14.54877 z"
               id="path11322"
               sodipodi:nodetypes="csaccsc" /></g><path
             style="fill:url(#linearGradient11336);fill-opacity:1;stroke-width:0.264583"
             d="m 86.656565,128.5982 c 0,0 4.27946,5.08372 8.455396,5.98991 4.462602,0.9684 5.571099,1.02073 7.859809,2.55388 1.35101,0.905 3.15957,3.7169 3.15957,3.7169 l -1.86668,5.12416 c 0,0 -5.169128,0.29066 -9.159393,-2.83608 -7.72456,-6.05291 -8.448702,-14.54877 -8.448702,-14.54877 z"
             id="path11326"
             sodipodi:nodetypes="csaccsc" /></g><path
           style="fill:url(#linearGradient11338);fill-opacity:1;stroke-width:0.264583"
           d="m 102.82422,139.93008 c 0.70748,-1.3258 -2.08565,-3.99679 -2.08565,-3.99679 0,0 1.64374,0.7011 2.32651,1.25912 1.23363,1.00822 3.06626,3.66648 3.06626,3.66648 l -1.86668,5.12416 c 0,0 -2.78799,0.13106 -5.990405,-1.02398 -2.936311,-1.05905 -5.483167,-3.92625 -5.483167,-3.92625 0,0 8.449162,1.86559 10.033132,-1.10274 z"
           id="path11330"
           sodipodi:nodetypes="acaccsca" /></g></g><g
       id="g54104"
       transform="matrix(0.93749725,0,0,0.93749725,-31.485538,-71.236955)"><g
         id="g49588"><path
           style="fill:#b575b1;fill-opacity:1;stroke-width:0.264583"
           d="m 93.401343,158.00619 c -0.610953,7.00949 -1.376494,12.02303 -3.658761,17.54354 -1.03216,2.49666 -3.401515,5.05299 -4.430986,6.78633 -1.332546,2.24365 2.273936,9.0087 4.854537,12.75519 1.756567,2.55017 6.613027,5.03313 9.704344,7.59563 3.729823,3.09178 6.069863,6.26991 6.069863,6.26991 l 3.14319,-46.43048 c 0,0 -15.319431,-8.68157 -15.682147,-4.52012 z"
           id="path46684"
           sodipodi:nodetypes="sasssccss" /><path
           style="fill:#b575b1;fill-opacity:1;stroke-width:0.264583"
           d="m 118.26621,158.00619 c 0.61096,7.00949 1.3765,12.02303 3.65876,17.54354 1.03216,2.49666 3.40152,5.05299 4.43099,6.78633 1.33255,2.24365 -2.27394,9.0087 -4.85454,12.75519 -1.75656,2.55017 -6.61302,5.03313 -9.70434,7.59563 -3.72982,3.09178 -5.85674,6.26991 -5.85674,6.26991 l -0.10652,-46.36662 c 0,0 12.06968,-8.74543 12.43239,-4.58398 z"
           id="path48428"
           sodipodi:nodetypes="sasssccs" /></g><g
         id="g49584"
         style="fill:url(#linearGradient49600);fill-opacity:1"><path
           style="fill:url(#linearGradient54106);fill-opacity:1;stroke-width:0.264583"
           d="m 93.401343,158.00619 c -0.610953,7.00949 -1.376494,12.02304 -3.658761,17.54354 -1.03216,2.49666 -3.401515,5.05299 -4.430986,6.78633 -1.332546,2.24365 1.042488,4.99256 4.232207,7.36204 2.397256,1.7808 5.230177,3.79403 7.707423,3.43016 5.453944,-0.8011 8.582554,0.34696 8.582554,0.34696 l 3.24975,-30.94891 c 0,0 -15.319471,-8.6816 -15.682187,-4.52015 z"
           id="path47723"
           sodipodi:nodetypes="sasssccss" /><path
           style="fill:url(#linearGradient54108);fill-opacity:1;stroke-width:0.264583"
           d="m 118.26621,158.00619 c 0.61096,7.00949 1.3765,12.02304 3.65876,17.54354 1.03216,2.49666 3.40152,5.05299 4.43099,6.78633 1.33255,2.24365 -1.04249,4.99256 -4.23221,7.36204 -2.39725,1.7808 -5.23017,3.79403 -7.70742,3.43016 -5.45394,-0.8011 -8.58255,0.34696 -8.58255,0.34696 v -30.88505 c 0,0 12.06972,-8.74546 12.43243,-4.58401 z"
           id="path48430"
           sodipodi:nodetypes="sasssccss" /></g><g
         id="g49592"
         style="fill:url(#linearGradient53058);fill-opacity:1"><path
           style="fill:url(#linearGradient54110);fill-opacity:1;stroke-width:0.264583"
           d="m 93.401343,158.00619 c 0,2.41823 -0.773644,6.65255 -1.305322,10.00653 -0.685466,4.32412 -5.259392,12.1495 -5.259392,12.1495 0,0 4.585477,-4.43456 6.612512,-3.34084 0.723974,0.39063 3.521838,1.81311 6.041996,3.1728 2.807203,1.14145 6.342643,1.93253 6.342643,1.93253 l 3.24975,-19.4004 c 0,0 -15.319471,-8.6816 -15.682187,-4.52015 z"
           id="path47169"
           sodipodi:nodetypes="sscscccss" /><path
           style="fill:url(#linearGradient54112);fill-opacity:1;stroke-width:0.264583"
           d="m 118.26621,158.00619 c 0,2.41823 0.77365,6.65255 1.30533,10.00653 0.68546,4.32412 5.25939,12.1495 5.25939,12.1495 0,0 -4.58548,-4.43456 -6.61251,-3.34084 -0.72398,0.39063 -3.52184,1.81311 -6.042,3.1728 -2.8072,1.14145 -6.34264,1.93253 -6.34264,1.93253 l -2.05905,-20.38357 c 0,0 14.12877,-7.69843 14.49148,-3.53698 z"
           id="path48432"
           sodipodi:nodetypes="sscscccss" /></g></g><g
       id="g16689"
       transform="matrix(0.93749725,0,0,0.93749725,-32.192153,-67.096316)"
       style="stroke:#ffffff;stroke-opacity:1"><g
         id="g16631"
         transform="translate(-13.603614)"
         style="stroke:#ffffff;stroke-opacity:1"><path
           style="fill:#1c2125;fill-opacity:1;stroke:#ffffff;stroke-width:0.264583;stroke-opacity:1"
           d="m 75.463749,103.84665 c 0,0 0.63418,-0.76311 1.651552,-0.81869 1.045272,-0.0571 2.495061,0.42046 3.540384,-0.003 0.45394,-0.18385 0.324487,-4.004367 0.516488,-6.003843 0.186492,-1.942118 0.857545,-5.738387 1.878916,-5.579747 0,0 -0.330373,8.87201 0.377536,13.22493 0.459682,2.82657 2.488697,8.22276 2.488697,8.22276 l -2.093036,2.17953 -3.048477,-9.49528 c 0,0 -1.632348,-0.87781 -2.324625,-1.19851 -0.849302,-0.39346 -2.987435,-0.52823 -2.987435,-0.52823 z"
           id="path11394"
           sodipodi:nodetypes="cssssacccsc" /><path
           style="fill:#1c2125;fill-opacity:1;stroke:#ffffff;stroke-width:0.264583;stroke-opacity:1"
           d="m 88.742604,83.097347 c 0,0 -2.288381,2.855802 -2.849382,4.557282 -1.363262,4.134688 -1.145366,8.669137 -1.020433,13.020981 0.110982,3.86592 1.568586,11.49602 1.568586,11.49602 l 2.651437,-2.82507 c 0,0 -1.114204,-3.93687 -1.344399,-5.9606 -0.292864,-2.57467 -0.56694,-5.237353 -0.03643,-7.773744 0.206815,-0.9888 0.859547,-2.693383 1.889125,-4.064515 1.268053,-1.688718 2.921609,-2.969588 2.765913,-2.969588 -0.134307,0 -1.81572,0.58259 -3.017743,1.660461 -1.322827,1.186199 -2.16772,2.872243 -2.102558,2.731857 0.05275,-0.113657 -0.350871,-1.853006 -0.07908,-3.915111 0.36898,-2.799448 1.574963,-5.957973 1.574964,-5.957973 z"
           id="path12487"
           sodipodi:nodetypes="caaccassssssc" /><path
           style="fill:#1c2125;fill-opacity:1;stroke:#ffffff;stroke-width:0.264583;stroke-opacity:1"
           d="m 98.075281,89.68429 c -0.310914,0.459201 -5.360548,14.93079 -5.360548,14.93079 l 3.483007,-5.256124 z"
           id="path13515"
           sodipodi:nodetypes="cccc" /><path
           style="fill:#1c2125;fill-opacity:1;stroke:#ffffff;stroke-width:0.264583;stroke-opacity:1"
           d="m 98.149873,97.083269 c 0,0 -3.984935,6.328501 -6.188028,9.346251 -2.705873,3.70645 -8.138602,8.0962 -8.617996,10.7362 -0.190915,1.05136 -0.13896,2.34861 1.521185,4.38978 1.01197,1.24423 3.951352,0.61691 5.938232,0.83612 3.308511,0.36502 6.764286,0.31748 9.953914,0.79685 5.2296,0.78595 8.16312,4.56858 9.62878,5.59504 0.82598,0.57846 1.02766,2.63546 1.02766,2.63546 l 8.59071,-1.47316 -0.0634,-1.68147 c 0,0 -3.85634,0.65477 -5.68803,-2.30645 -1.39936,-2.26231 -1.6001,-4.00242 -1.73234,-6.15565 -0.0698,-1.13607 0.236,-1.7855 0.1413,-2.70527 -0.23294,-2.26245 -0.74765,-4.82536 -0.68671,-6.82654 0.0606,-1.99085 0.61558,-5.94352 0.61558,-5.94352 0,0 -1.86971,1.9833 -2.13823,3.95698 -0.14887,1.09423 0.48778,2.46436 0.25855,3.66866 -0.14025,0.73684 -1.06261,1.28501 -0.97175,2.02955 0.31929,2.61659 1.02565,5.73936 -0.73431,6.95978 -1.1362,0.78787 -4.91495,-1.79291 -7.71248,-1.75043 -2.26345,0.0344 -5.484899,-0.61089 -6.645879,-1.76316 -2.046328,-2.03099 -0.194739,-10.79972 -0.194739,-10.79972 0,0 -3.47186,5.30652 -4.70986,8.2078 -0.47367,1.11006 -0.948258,2.26919 -1.020344,3.47393 -0.03256,0.54408 0.270435,1.61263 0.270435,1.61263 0,0 -0.758973,-0.82067 -0.846457,-1.34237 -0.226273,-1.34936 0.305243,-2.7826 0.936984,-3.99622 1.320073,-2.53595 2.911434,-5.08356 4.396876,-7.60801 1.184635,-2.01324 2.682297,-3.86407 3.6011,-6.01169 0.527856,-1.233817 1.069287,-3.881371 1.069287,-3.881371 z"
           id="path13517"
           sodipodi:nodetypes="cassasscccsssscsasssscaacasaac" /></g><g
         id="g16641"
         transform="matrix(-1,0,0,1,226.77862,0)"
         style="stroke:#ffffff;stroke-opacity:1"><path
           style="fill:#1c2125;fill-opacity:1;stroke:#ffffff;stroke-width:0.264583;stroke-opacity:1"
           d="m 75.463749,103.84665 c 0,0 0.63418,-0.76311 1.651552,-0.81869 1.045272,-0.0571 2.495061,0.42046 3.540384,-0.003 0.45394,-0.18385 0.324487,-4.004367 0.516488,-6.003843 0.186492,-1.942118 0.857545,-5.738387 1.878916,-5.579747 0,0 -0.330373,8.87201 0.377536,13.22493 0.459682,2.82657 2.488697,8.22276 2.488697,8.22276 l -2.093036,2.17953 -3.048477,-9.49528 c 0,0 -1.632348,-0.87781 -2.324625,-1.19851 -0.849302,-0.39346 -2.987435,-0.52823 -2.987435,-0.52823 z"
           id="path16633"
           sodipodi:nodetypes="cssssacccsc" /><path
           style="fill:#1c2125;fill-opacity:1;stroke:#ffffff;stroke-width:0.264583;stroke-opacity:1"
           d="m 88.742604,83.097347 c 0,0 -2.288381,2.855802 -2.849382,4.557282 -1.363262,4.134688 -1.145366,8.669137 -1.020433,13.020981 0.110982,3.86592 1.568586,11.49602 1.568586,11.49602 l 2.651437,-2.82507 c 0,0 -1.114204,-3.93687 -1.344399,-5.9606 -0.292864,-2.57467 -0.56694,-5.237353 -0.03643,-7.773744 0.206815,-0.9888 0.859547,-2.693383 1.889125,-4.064515 1.268053,-1.688718 2.921609,-2.969588 2.765913,-2.969588 -0.134307,0 -1.81572,0.58259 -3.017743,1.660461 -1.322827,1.186199 -2.16772,2.872243 -2.102558,2.731857 0.05275,-0.113657 -0.350871,-1.853006 -0.07908,-3.915111 0.36898,-2.799448 1.574963,-5.957973 1.574964,-5.957973 z"
           id="path16635"
           sodipodi:nodetypes="caaccassssssc" /><path
           style="fill:#1c2125;fill-opacity:1;stroke:#ffffff;stroke-width:0.264583;stroke-opacity:1"
           d="m 98.075281,89.68429 c -0.310914,0.459201 -5.360548,14.93079 -5.360548,14.93079 l 3.483007,-5.256124 z"
           id="path16637"
           sodipodi:nodetypes="cccc" /><path
           style="fill:#1c2125;fill-opacity:1;stroke:#ffffff;stroke-width:0.264583;stroke-opacity:1"
           d="m 98.149873,97.083269 c 0,0 -3.984935,6.328501 -6.188028,9.346251 -2.705873,3.70645 -8.138602,8.0962 -8.617996,10.7362 -0.190915,1.05136 -0.13896,2.34861 1.521185,4.38978 1.01197,1.24423 3.951352,0.61691 5.938232,0.83612 3.308511,0.36502 6.764286,0.31748 9.953914,0.79685 5.2296,0.78595 8.16312,4.56858 9.62878,5.59504 0.82598,0.57846 1.02766,2.63546 1.02766,2.63546 l 9.0302,-1.35806 -0.002,-1.79657 c 0,0 -4.35675,0.65477 -6.18844,-2.30645 -1.39936,-2.26231 -1.6001,-4.00242 -1.73234,-6.15565 -0.0698,-1.13607 0.236,-1.7855 0.1413,-2.70527 -0.23294,-2.26245 -0.74765,-4.82536 -0.68671,-6.82654 0.0606,-1.99085 0.61558,-5.94352 0.61558,-5.94352 0,0 -1.86971,1.9833 -2.13823,3.95698 -0.14887,1.09423 0.48778,2.46436 0.25855,3.66866 -0.14025,0.73684 -1.06261,1.28501 -0.97175,2.02955 0.31929,2.61659 1.02565,5.73936 -0.73431,6.95978 -1.1362,0.78787 -4.91495,-1.79291 -7.71248,-1.75043 -2.26345,0.0344 -5.484899,-0.61089 -6.645879,-1.76316 -2.046328,-2.03099 -0.194739,-10.79972 -0.194739,-10.79972 0,0 -3.47186,5.30652 -4.70986,8.2078 -0.47367,1.11006 -0.948258,2.26919 -1.020344,3.47393 -0.03256,0.54408 0.270435,1.61263 0.270435,1.61263 0,0 -0.758973,-0.82067 -0.846457,-1.34237 -0.226273,-1.34936 0.305243,-2.7826 0.936984,-3.99622 1.320073,-2.53595 2.911434,-5.08356 4.396876,-7.60801 1.184635,-2.01324 2.682297,-3.86407 3.6011,-6.01169 0.527856,-1.233817 1.069287,-3.881371 1.069287,-3.881371 z"
           id="path16639"
           sodipodi:nodetypes="cassasscccsssscsasssscaacasaacc" /></g></g><path
       style="fill:#1c2125;fill-opacity:1;stroke:none;stroke-width:0.268756;stroke-opacity:1"
       d="m 67.368125,53.292892 c 0.01087,0 0.256038,-0.0028 0.256038,-0.0028 l 0.165007,0.956452 -0.579107,8.2e-4 z"
       id="path54921" /><g
       id="g46682"
       transform="matrix(0.93749725,0,0,0.93749725,-32.809348,-66.600223)"><g
         id="g42788"><path
           style="fill:#95268e;fill-opacity:1;stroke-width:0.264583"
           d="m 93.733103,136.57256 c -2.047132,3.32036 -3.222513,6.0083 -3.24981,9.41049 -0.02019,2.51695 3.3571,6.30027 4.588683,9.63878 1.508417,4.08894 3.39301,12.62696 3.39301,12.62696 l 8.740474,1.6181 -0.34063,-39.06677 c 0,0 -10.278152,1.14398 -13.131777,5.77244 z"
           id="path42506"
           sodipodi:nodetypes="ssacccss" /><path
           style="fill:#95268e;fill-opacity:1;stroke-width:0.264583"
           d="m 120.75859,136.57256 c 2.04713,3.32036 3.22251,6.0083 3.24981,9.41049 0.0202,2.51695 -3.3571,6.30027 -4.58868,9.63878 -1.50842,4.08894 -3.39301,12.62696 -3.39301,12.62696 l -8.82125,1.6181 -0.34063,-39.06677 c 0,0 11.04018,1.14398 13.89381,5.77244 z"
           id="path42784"
           sodipodi:nodetypes="ssacccss" /></g><path
         style="fill:url(#linearGradient42852);fill-opacity:1;stroke-width:0.25999"
         d="m 96.690838,144.64877 c 0,0 3.487512,7.08939 2.62092,10.63651 -0.846677,3.46563 -2.901228,4.66245 -2.901228,4.66245 l 2.097179,8.59807 5.313891,-10.96535 z"
         id="path42844"
         sodipodi:nodetypes="cscccc" /><path
         style="fill:url(#linearGradient46661);fill-opacity:1;stroke-width:0.25999"
         d="m 117.80179,144.64877 c 0,0 -3.48751,7.08939 -2.62092,10.63651 0.84668,3.46563 2.90123,4.66245 2.90123,4.66245 l -2.09718,8.59807 -5.31389,-10.96535 z"
         id="path46659"
         sodipodi:nodetypes="cscccc" /><g
         id="g31776"
         transform="matrix(1.0182626,0,0,1.0110633,-1.9571663,-1.684493)"><g
           id="g31758"><path
             style="fill:url(#linearGradient16707);fill-opacity:1;stroke-width:0.246187"
             d="m 96.267506,131.28523 c 2.700041,-2.39725 9.952574,-2.1201 9.952574,-2.1201 l -0.0889,46.11941 c 0,0 -2.29435,0.18791 -4.0539,-0.88033 -2.520032,-1.52993 -5.149925,-4.77646 -4.177371,-6.79054 1.307486,-2.70772 2.862541,-5.7637 2.679971,-9.04588 -0.634548,-11.40712 -5.791429,-14.91208 -6.59793,-21.92868 0.09422,-1.96592 1.01356,-4.17517 2.285556,-5.35388 z"
             id="path16691"
             sodipodi:nodetypes="cccssscc" /><path
             style="fill:url(#linearGradient31732);fill-opacity:1;stroke-width:0.259133"
             d="m 96.2123,131.23247 c 2.807597,-2.56617 11.9712,-2.06734 11.9712,-2.06734 l -0.0985,46.11941 c 0,0 -3.48691,0.48161 -5.43638,-0.58663 -2.792027,-1.52993 -5.867844,-4.92937 -4.790323,-6.94345 1.448617,-2.70772 3.254603,-5.94874 3.052323,-9.23092 -0.46217,-7.499 -1.892058,-10.7438 -3.892083,-14.65538 -1.042318,-2.03854 -2.497632,-4.46407 -2.566476,-6.92481 -0.05571,-1.99122 0.4097,-4.5813 1.760239,-5.71088 z"
             id="path31730"
             sodipodi:nodetypes="cccssssac" /></g><g
           id="g31764"
           transform="matrix(-1,0,0,1,214.3363,0)"><path
             style="fill:url(#linearGradient31766);fill-opacity:1;stroke-width:0.246187"
             d="m 96.267506,131.28523 c 2.700041,-2.39725 9.952574,-2.1201 9.952574,-2.1201 l -0.0889,46.11941 c 0,0 -2.29435,0.18791 -4.0539,-0.88033 -2.520032,-1.52993 -5.149925,-4.77646 -4.177371,-6.79054 1.307486,-2.70772 2.862541,-5.7637 2.679971,-9.04588 -0.634548,-11.40712 -5.791429,-14.91208 -6.59793,-21.92868 0.09422,-1.96592 1.01356,-4.17517 2.285556,-5.35388 z"
             id="path31760"
             sodipodi:nodetypes="cccssscc" /><path
             style="fill:url(#linearGradient31768);fill-opacity:1;stroke-width:0.259133"
             d="m 96.2123,131.23247 c 2.807597,-2.56617 11.9712,-2.06734 11.9712,-2.06734 l -0.0985,46.11941 c 0,0 -3.48691,0.48161 -5.43638,-0.58663 -2.792027,-1.52993 -5.867844,-4.92937 -4.790323,-6.94345 1.448617,-2.70772 3.254603,-5.94874 3.052323,-9.23092 -0.46217,-7.499 -1.892058,-10.7438 -3.892083,-14.65538 -1.042318,-2.03854 -2.497632,-4.46407 -2.566476,-6.92481 -0.05571,-1.99122 0.4097,-4.5813 1.760239,-5.71088 z"
             id="path31762"
             sodipodi:nodetypes="cccssssac" /></g></g><g
         id="g42450"
         transform="matrix(1.1666847,0,0,1,-17.871805,0)"><g
           id="g42424"><path
             style="fill:#20134a;fill-opacity:1;stroke-width:0.264583"
             d="m 101.38634,162.55173 c 2.38125,2.07103 2.3397,4.59362 5.82109,2.86675 l 0.0238,5.61596 c 0,0 -2.69983,-0.3995 -4.29451,-2.14992 -1.2129,-1.33135 -1.55039,-6.33279 -1.55039,-6.33279 z"
             id="path35514"
             sodipodi:nodetypes="cccscc" /><path
             style="fill:url(#linearGradient41799);fill-opacity:1;stroke-width:0.246584"
             d="m 101.38634,162.49904 c 0,0 1.78153,1.78279 2.90901,1.73243 1.18485,-0.0529 2.88258,-2.08587 2.88258,-2.08587 l 0.0295,7.72129 c 0,0 -2.67603,-0.34699 -4.27071,-1.86736 -1.2129,-1.15637 -1.55039,-5.50049 -1.55039,-5.50049 z"
             id="path41797"
             sodipodi:nodetypes="caccscc" /></g><g
           id="g42440"
           transform="matrix(-1,0,0,1,214.4384,0)"><path
             style="fill:#20134a;fill-opacity:1;stroke-width:0.264583"
             d="m 101.38634,162.55173 c 2.38125,2.07103 2.3397,4.59362 5.82109,2.86675 l -2.6e-4,5.61596 c 0,0 -2.67577,-0.3995 -4.27045,-2.14992 -1.2129,-1.33135 -1.55039,-6.33279 -1.55039,-6.33279 z"
             id="path42436"
             sodipodi:nodetypes="cccscc" /><path
             style="fill:url(#linearGradient42442);fill-opacity:1;stroke-width:0.246584"
             d="m 101.38634,162.49904 c 0,0 1.78122,1.77526 2.90901,1.73243 1.20756,-0.0459 2.96512,-2.08587 2.96512,-2.08587 l -0.0295,7.72129 c 0,0 -2.69957,-0.34699 -4.29425,-1.86736 -1.2129,-1.15637 -1.55039,-5.50049 -1.55039,-5.50049 z"
             id="path42438"
             sodipodi:nodetypes="caccscc" /></g></g></g></g></svg>
